<?xml version="1.0" encoding="UTF-8"?>
<!DOCTYPE svg PUBLIC "-//W3C//DTD SVG 1.1//EN" "http://www.w3.org/Graphics/SVG/1.1/DTD/svg11.dtd">
<!-- Creator: CorelDRAW 2020 (64-Bit) -->
<svg xmlns="http://www.w3.org/2000/svg" xml:space="preserve" width="120px" height="120px" version="1.1"
     style="shape-rendering:geometricPrecision; text-rendering:geometricPrecision; image-rendering:optimizeQuality; fill-rule:evenodd; clip-rule:evenodd"
     viewBox="0 0 120 120"
     enable-background="new 0 0 595.28 685.466">
 <defs>
  <style type="text/css">
   <![CDATA[
    .fil0 {fill:none}
    .fil2 {fill:#0071B3}
    .fil4 {fill:#013F1F}
    .fil5 {fill:#829B19}
    .fil3 {fill:black;fill-rule:nonzero}
    .fil7 {fill:#0071B3;fill-rule:nonzero}
    .fil8 {fill:#FF1A22;fill-rule:nonzero}
    .fil6 {fill:#FF7800;fill-rule:nonzero}
    .fil1 {fill:white;fill-rule:nonzero}
   ]]>
  </style>
 </defs>
    <g id="Capa_x0020_1">
  <metadata id="CorelCorpID_0Corel-Layer"/>
        <rect class="fil0" width="120" height="120"/>
        <g id="itsmt.svg">
   <g>
    <ellipse class="fil1" cx="60" cy="60" rx="45.712" ry="47.021"/>
       <g>
     <path class="fil2"
           d="M42.037 57.629c0,0 -9.01,2.008 -9.061,3.274 -0.051,1.265 2.524,3.847 17.156,4.758 14.633,0.911 -13.815,0.401 -20.092,-3.166 -6.276,-3.566 11.997,-4.866 11.997,-4.866z"/>
           <path class="fil2"
                 d="M79.288 57.925c0,0 10.664,1.576 9.044,4.365 -1.619,2.789 -17.498,3.464 -17.498,3.464 0,0 15.474,0.283 20.4,-2.963 4.927,-3.246 -10.798,-4.798 -11.946,-4.866z"/>
           <g>
      <polygon class="fil3" points="19.715,49.798 25.632,51.015 25.356,52.358 19.438,51.141 "/>
               <path class="fil3"
                     d="M25.789 50.014l-5.732 -1.91 0.505 -1.514 2.497 -0.49c0.717,-0.139 1.545,-0.241 2.276,-0.281l0.009 -0.026c-0.785,-0.167 -1.568,-0.399 -2.426,-0.685l-1.676 -0.559 0.397 -1.191 5.732 1.911 -0.454 1.36 -2.619 0.488c-0.725,0.136 -1.59,0.264 -2.356,0.32l0 0.029c0.768,0.218 1.582,0.47 2.518,0.782l1.726 0.575 -0.397 1.191z"/>
               <path class="fil3"
                     d="M26.557 43.718c0.335,-0.242 0.759,-0.66 1.024,-1.179 0.284,-0.559 0.203,-0.972 -0.148,-1.151 -0.335,-0.171 -0.657,-0.014 -1.218,0.515 -0.768,0.736 -1.56,1.067 -2.342,0.668 -0.919,-0.469 -1.231,-1.593 -0.584,-2.863 0.31,-0.607 0.666,-0.989 0.972,-1.235l0.844 0.772c-0.214,0.163 -0.561,0.469 -0.83,0.996 -0.269,0.527 -0.159,0.905 0.12,1.047 0.344,0.175 0.65,-0.051 1.268,-0.612 0.836,-0.771 1.559,-0.966 2.317,-0.579 0.903,0.46 1.315,1.546 0.562,3.023 -0.313,0.615 -0.783,1.141 -1.105,1.359l-0.88 -0.761z"/>
               <polygon class="fil3"
                        points="26.587,36.55 25.666,37.886 24.722,37.236 27.355,33.411 28.3,34.062 27.365,35.421 31.395,38.197 30.618,39.326 "/>
               <polygon class="fil3" points="29.029,31.474 33.636,35.382 32.748,36.429 28.142,32.52 "/>
               <polygon class="fil3"
                        points="31.742,30.256 30.574,31.383 29.777,30.557 33.12,27.334 33.916,28.16 32.729,29.305 36.125,32.828 35.138,33.78 "/>
               <path class="fil3"
                     d="M35.306 25.635l2.018 2.833c0.603,0.847 1.231,1.049 1.801,0.643 0.584,-0.416 0.614,-1.054 -0.005,-1.923l-2.018 -2.832 1.11 -0.791 1.966 2.76c1.081,1.518 0.829,2.787 -0.455,3.702 -1.241,0.884 -2.46,0.718 -3.578,-0.851l-1.956 -2.745 1.117 -0.796z"/>
               <polygon class="fil3"
                        points="41.387,23.133 39.941,23.868 39.421,22.845 43.56,20.741 44.08,21.764 42.61,22.511 44.827,26.874 43.604,27.495 "/>
               <path class="fil3"
                     d="M50.789 21.325c0.63,1.879 -0.127,3.4 -1.802,3.961 -1.7,0.569 -3.124,-0.381 -3.671,-2.013 -0.576,-1.717 0.09,-3.368 1.782,-3.934 1.759,-0.59 3.161,0.406 3.691,1.986zm-4.113 1.464c0.375,1.122 1.168,1.736 2.034,1.445 0.876,-0.293 1.098,-1.294 0.725,-2.407 -0.345,-1.029 -1.134,-1.748 -2.026,-1.449 -0.876,0.294 -1.107,1.298 -0.733,2.411z"/>
               <polygon class="fil3"
                        points="54.34,18.878 52.731,19.088 52.582,17.95 57.187,17.35 57.335,18.487 55.7,18.701 56.333,23.554 54.973,23.732 "/>
               <polygon class="fil3"
                        points="62.059,20.756 59.837,20.792 59.86,22.227 62.343,22.186 62.361,23.306 58.507,23.37 58.408,17.328 62.137,17.267 62.155,18.388 59.798,18.426 59.818,19.681 62.041,19.644 "/>
               <path class="fil3"
                     d="M67.515 23.817c-0.265,0.09 -0.843,0.147 -1.571,0.048 -2.07,-0.282 -2.96,-1.715 -2.728,-3.42 0.278,-2.043 1.889,-2.982 3.701,-2.735 0.702,0.096 1.216,0.31 1.438,0.467l-0.421 1.037c-0.26,-0.152 -0.627,-0.311 -1.107,-0.376 -1.075,-0.146 -1.998,0.388 -2.179,1.72 -0.164,1.2 0.444,2.052 1.652,2.216 0.409,0.055 0.874,0.028 1.155,-0.042l0.06 1.085z"/>
               <path class="fil3"
                     d="M68.151 24.116l1.737 -5.786 1.528 0.458 0.566 2.482c0.16,0.713 0.287,1.537 0.349,2.267l0.026 0.008c0.143,-0.79 0.352,-1.579 0.612,-2.447l0.508 -1.691 1.202 0.361 -1.737 5.787 -1.374 -0.413 -0.566 -2.603c-0.158,-0.722 -0.312,-1.582 -0.391,-2.345l-0.029 0.001c-0.195,0.774 -0.423,1.595 -0.706,2.54l-0.523 1.742 -1.202 -0.361z"/>
               <path class="fil3"
                     d="M80.141 25.6c-0.884,1.773 -2.495,2.311 -4.075,1.523 -1.604,-0.801 -1.939,-2.48 -1.17,-4.02 0.809,-1.62 2.447,-2.315 4.044,-1.518 1.66,0.828 1.946,2.523 1.201,4.015zm-3.942 -1.877c-0.528,1.059 -0.403,2.053 0.415,2.461 0.826,0.412 1.692,-0.138 2.216,-1.188 0.485,-0.971 0.435,-2.037 -0.407,-2.457 -0.826,-0.412 -1.699,0.133 -2.224,1.184z"/>
               <polygon class="fil3"
                        points="82.775,23.839 83.898,24.627 81.087,28.634 83.055,30.014 82.396,30.953 79.306,28.786 "/>
               <path class="fil3"
                     d="M88.772 32.604c-1.35,1.45 -3.048,1.51 -4.34,0.305 -1.311,-1.222 -1.155,-2.927 0.018,-4.186 1.234,-1.325 3.003,-1.526 4.308,-0.31 1.358,1.265 1.151,2.972 0.014,4.191zm-3.248 -2.917c-0.807,0.866 -0.968,1.854 -0.3,2.478 0.676,0.629 1.661,0.347 2.462,-0.512 0.739,-0.793 0.995,-1.83 0.306,-2.471 -0.675,-0.63 -1.668,-0.354 -2.468,0.505zm5.259 -1.212l-1.551 0.06 -0.801 -0.745 1.303 -0.293 1.049 0.978z"/>
               <path class="fil3"
                     d="M90.368 39.214c-0.37,-0.247 -1.011,-0.761 -1.495,-1.396 -0.669,-0.876 -0.932,-1.679 -0.842,-2.447 0.076,-0.757 0.518,-1.478 1.229,-2.009 1.601,-1.211 3.399,-0.747 4.602,0.828 0.473,0.619 0.716,1.189 0.782,1.511l-1.044 0.436c-0.087,-0.351 -0.244,-0.749 -0.647,-1.277 -0.691,-0.904 -1.726,-1.196 -2.766,-0.402 -0.99,0.756 -1.101,1.822 -0.421,2.713 0.19,0.249 0.371,0.427 0.479,0.479l1.005 -0.767 -0.566 -0.741 0.847 -0.647 1.366 1.788 -2.529 1.931z"/>
               <polygon class="fil3" points="96.453,38.284 91.257,41.367 90.557,40.187 95.753,37.104 "/>
               <path class="fil3"
                     d="M93.797 46.204c-0.219,-0.176 -0.576,-0.634 -0.881,-1.302 -0.869,-1.9 -0.134,-3.418 1.432,-4.134 1.875,-0.857 3.529,0.003 4.289,1.666 0.295,0.644 0.388,1.193 0.374,1.465l-1.102 0.198c-0.009,-0.301 -0.072,-0.696 -0.273,-1.136 -0.451,-0.987 -1.396,-1.481 -2.619,-0.922 -1.101,0.503 -1.496,1.472 -0.989,2.581 0.172,0.375 0.444,0.753 0.653,0.953l-0.884 0.631z"/>
               <path class="fil3"
                     d="M98.276 51.129c-1.905,0.541 -3.389,-0.287 -3.871,-1.986 -0.489,-1.724 0.527,-3.103 2.183,-3.572 1.742,-0.494 3.36,0.249 3.846,1.965 0.507,1.785 -0.554,3.139 -2.158,3.593zm-1.268 -4.177c-1.138,0.323 -1.789,1.085 -1.539,1.965 0.252,0.888 1.241,1.156 2.37,0.836 1.044,-0.295 1.799,-1.05 1.542,-1.956 -0.252,-0.888 -1.244,-1.166 -2.373,-0.845z"/>
     </g>
           <g>
      <path class="fil3"
            d="M21.15 68.817c-0.075,0.284 -0.119,0.707 -0.03,1.114 0.097,0.438 0.329,0.629 0.604,0.568 0.263,-0.057 0.369,-0.29 0.439,-0.837 0.089,-0.754 0.376,-1.296 0.989,-1.431 0.719,-0.159 1.402,0.321 1.621,1.315 0.104,0.475 0.082,0.847 0.024,1.122l-0.816 -0.043c0.044,-0.187 0.097,-0.513 0.006,-0.926 -0.091,-0.413 -0.323,-0.571 -0.541,-0.523 -0.27,0.059 -0.336,0.323 -0.422,0.912 -0.112,0.805 -0.422,1.24 -1.016,1.372 -0.707,0.155 -1.427,-0.257 -1.682,-1.414 -0.106,-0.481 -0.085,-0.984 -0.006,-1.25l0.83 0.021z"/>
               <path class="fil3"
                     d="M25.402 72.229l-2.367 0.756c-0.707,0.226 -0.981,0.609 -0.83,1.085 0.156,0.488 0.583,0.647 1.309,0.415l2.367 -0.755 0.296 0.927 -2.306 0.736c-1.269,0.405 -2.077,-0.042 -2.42,-1.116 -0.331,-1.037 0.048,-1.83 1.36,-2.249l2.293 -0.732 0.298 0.933z"/>
               <path class="fil3"
                     d="M26.378 75.332c0.164,0.257 0.363,0.633 0.592,1.182 0.233,0.555 0.292,0.995 0.191,1.35 -0.095,0.338 -0.354,0.648 -0.744,0.811 -0.39,0.163 -0.775,0.172 -1.098,0.03 -0.418,-0.186 -0.738,-0.587 -0.961,-1.118 -0.049,-0.118 -0.088,-0.228 -0.111,-0.315l-1.423 0.596 -0.374 -0.892 3.928 -1.644zm-1.433 1.648c0.014,0.085 0.048,0.181 0.102,0.311 0.2,0.479 0.566,0.673 0.974,0.502 0.366,-0.153 0.478,-0.499 0.29,-0.948 -0.077,-0.183 -0.146,-0.299 -0.191,-0.357l-1.175 0.492z"/>
               <polygon class="fil3"
                        points="26.81,82.029 26.082,80.619 25.172,81.088 25.985,82.664 25.274,83.031 24.012,80.585 27.846,78.606 29.068,80.973 28.356,81.34 27.585,79.844 26.788,80.254 27.516,81.665 "/>
               <path class="fil3"
                     d="M29.32 81.54c0.211,0.238 0.493,0.613 0.77,1.052 0.342,0.541 0.5,0.971 0.458,1.361 -0.036,0.326 -0.216,0.606 -0.551,0.818 -0.466,0.294 -0.994,0.166 -1.306,-0.077l-0.016 0.01c0.058,0.319 -0.097,0.614 -0.375,0.918 -0.339,0.374 -0.744,0.788 -0.841,0.947l-0.533 -0.844c0.065,-0.125 0.309,-0.399 0.69,-0.791 0.393,-0.385 0.418,-0.621 0.212,-0.96l-0.157 -0.249 -1.435 0.906 -0.517 -0.818 3.601 -2.273zm-1.054 1.81l0.205 0.324c0.26,0.411 0.62,0.526 0.939,0.324 0.336,-0.212 0.36,-0.546 0.126,-0.928 -0.126,-0.2 -0.214,-0.304 -0.263,-0.357l-1.007 0.637z"/>
               <polygon class="fil3" points="31.962,85.373 28.489,87.934 27.908,87.145 31.381,84.584 "/>
               <path class="fil3"
                     d="M33.385 90.318c-1.061,0.936 -2.272,0.861 -3.107,-0.085 -0.847,-0.96 -0.618,-2.162 0.304,-2.975 0.969,-0.856 2.241,-0.877 3.084,0.078 0.877,0.994 0.612,2.193 -0.281,2.982zm-2.107 -2.3c-0.634,0.559 -0.817,1.251 -0.385,1.74 0.437,0.495 1.157,0.363 1.786,-0.192 0.58,-0.513 0.834,-1.232 0.389,-1.736 -0.436,-0.494 -1.161,-0.367 -1.79,0.188z"/>
               <path class="fil3"
                     d="M35.269 89.254c0.268,0.17 0.644,0.451 1.031,0.795 0.48,0.425 0.751,0.793 0.82,1.18 0.056,0.322 -0.038,0.641 -0.302,0.939 -0.365,0.412 -0.908,0.435 -1.275,0.289l-0.013 0.015c0.145,0.29 0.078,0.616 -0.103,0.986 -0.223,0.453 -0.496,0.964 -0.544,1.143l-0.747 -0.662c0.028,-0.138 0.185,-0.469 0.441,-0.952 0.271,-0.479 0.229,-0.712 -0.063,-0.98l-0.221 -0.195 -1.125 1.269 -0.723 -0.641 2.824 -3.186zm-0.508 2.03l0.287 0.255c0.364,0.323 0.741,0.332 0.992,0.049 0.263,-0.297 0.193,-0.623 -0.138,-0.926 -0.177,-0.157 -0.291,-0.232 -0.351,-0.269l-0.79 0.891z"/>
               <path class="fil3"
                     d="M38.966 92.361c0.335,0.141 0.748,0.362 1.166,0.624 0.694,0.434 1.067,0.841 1.253,1.327 0.203,0.521 0.161,1.12 -0.244,1.767 -0.438,0.7 -0.995,1.023 -1.535,1.101 -0.585,0.079 -1.267,-0.136 -1.983,-0.584 -0.429,-0.268 -0.716,-0.486 -0.905,-0.642l2.248 -3.593zm-1.038 3.504c0.061,0.061 0.175,0.132 0.278,0.197 0.745,0.474 1.492,0.367 2.039,-0.506 0.481,-0.757 0.287,-1.437 -0.424,-1.882 -0.184,-0.116 -0.314,-0.174 -0.395,-0.202l-1.498 2.393z"/>
               <polygon class="fil3"
                        points="43.914,97.857 42.476,97.182 42.041,98.109 43.647,98.863 43.307,99.587 40.814,98.418 42.647,94.511 45.058,95.642 44.719,96.367 43.194,95.652 42.813,96.463 44.251,97.137 "/>
               <path class="fil3"
                     d="M49.498 99.88c0.122,-0.505 0.273,-1.114 0.444,-1.718l-0.019 -0.005c-0.278,0.493 -0.618,1.036 -0.915,1.479l-0.962 1.478 -0.733 -0.206 0.009 -1.734c0.001,-0.525 0.026,-1.157 0.08,-1.727l-0.012 -0.004c-0.183,0.554 -0.381,1.191 -0.558,1.7l-0.518 1.557 -0.869 -0.245 1.434 -4.08 1.251 0.353 0.017 1.501c-0.006,0.517 -0.022,1.071 -0.067,1.584l0.019 0.005c0.252,-0.447 0.548,-0.956 0.814,-1.38l0.832 -1.256 1.227 0.345 -0.941 4.219 -0.919 -0.259 0.386 -1.607z"/>
               <path class="fil3"
                     d="M52.241 100.978l-0.471 1.049 -1 -0.153 1.956 -4.066 1.265 0.193 0.671 4.468 -1.038 -0.158 -0.162 -1.146 -1.221 -0.187zm1.192 -0.556l-0.127 -0.945c-0.037,-0.265 -0.065,-0.593 -0.089,-0.856l-0.013 -0.002c-0.102,0.244 -0.214,0.557 -0.322,0.793l-0.391 0.866 0.942 0.144z"/>
               <path class="fil3"
                     d="M55.743 98.281c0.316,-0.031 0.785,-0.041 1.303,-0.009 0.638,0.04 1.08,0.163 1.372,0.425 0.243,0.22 0.365,0.529 0.34,0.926 -0.034,0.549 -0.447,0.902 -0.826,1.014l-0.001 0.019c0.293,0.139 0.441,0.437 0.525,0.841 0.104,0.493 0.204,1.064 0.277,1.235l-0.997 -0.061c-0.063,-0.126 -0.144,-0.484 -0.239,-1.022 -0.081,-0.544 -0.258,-0.702 -0.654,-0.733l-0.294 -0.018 -0.104 1.693 -0.965 -0.06 0.263 -4.25zm0.85 1.914l0.383 0.023c0.486,0.03 0.788,-0.195 0.812,-0.572 0.024,-0.396 -0.232,-0.611 -0.679,-0.645 -0.236,-0.014 -0.371,-0.003 -0.443,0.005l-0.073 1.189z"/>
               <polygon class="fil3"
                        points="60.248,99.231 59.09,99.253 59.074,98.434 62.39,98.37 62.406,99.19 61.228,99.212 61.294,102.708 60.315,102.726 "/>
               <path class="fil3"
                     d="M64.343 97.223l-0.736 0.835 -0.779 0.05 0.493 -0.82 1.022 -0.065zm-0.536 1.054l0.274 4.306 -0.977 0.062 -0.274 -4.306 0.977 -0.062z"/>
               <path class="fil3"
                     d="M65.104 102.529l-0.564 -4.278 1.13 -0.149 1.095 1.451c0.314,0.417 0.638,0.917 0.892,1.374l0.019 -0.003c-0.138,-0.556 -0.233,-1.131 -0.318,-1.773l-0.164 -1.25 0.888 -0.117 0.564 4.278 -1.016 0.134 -1.131 -1.53c-0.315,-0.424 -0.666,-0.939 -0.942,-1.413l-0.018 0.009c0.099,0.561 0.192,1.163 0.284,1.861l0.169 1.289 -0.888 0.117z"/>
               <polygon class="fil3"
                        points="71.819,99.496 70.271,99.851 70.5,100.849 72.229,100.453 72.407,101.234 69.724,101.848 68.76,97.641 71.356,97.046 71.535,97.827 69.894,98.203 70.094,99.077 71.642,98.722 "/>
               <polygon class="fil3"
                        points="72.867,100.574 73.889,97.12 73.881,97.096 72.112,97.681 71.858,96.915 74.83,95.931 75.007,96.466 74.016,99.869 74.025,99.894 75.964,99.252 76.217,100.018 73.032,101.072 "/>
               <path class="fil3"
                     d="M76.422 95.347c0.293,-0.215 0.694,-0.457 1.132,-0.683 0.729,-0.374 1.269,-0.486 1.783,-0.398 0.551,0.091 1.044,0.435 1.393,1.113 0.378,0.734 0.37,1.379 0.161,1.882 -0.231,0.544 -0.764,1.02 -1.516,1.406 -0.45,0.232 -0.784,0.367 -1.014,0.45l-1.939 -3.77zm2.482 2.684c0.083,-0.021 0.202,-0.083 0.311,-0.138 0.789,-0.399 1.078,-1.095 0.607,-2.012 -0.404,-0.8 -1.088,-0.981 -1.834,-0.597 -0.193,0.099 -0.31,0.18 -0.375,0.236l1.291 2.511z"/>
               <polygon class="fil3"
                        points="83.677,93.912 82.361,94.801 82.935,95.65 84.404,94.657 84.853,95.32 82.571,96.861 80.155,93.286 82.362,91.795 82.81,92.457 81.415,93.4 81.917,94.143 83.232,93.254 "/>
               <polygon class="fil3"
                        points="83.786,90.663 84.513,90.007 86.856,92.602 88.129,91.452 88.678,92.061 86.677,93.867 "/>
               <path class="fil3"
                     d="M89.166 89.934l0.623 0.966 -0.672 0.756 -2.347 -3.854 0.851 -0.957 4.113 1.869 -0.698 0.785 -1.048 -0.488 -0.822 0.923zm0.182 -1.303l-0.862 -0.408c-0.243,-0.112 -0.533,-0.268 -0.767,-0.391l-0.008 0.01c0.148,0.218 0.35,0.483 0.49,0.702l0.513 0.8 0.634 -0.713z"/>
               <polygon class="fil3"
                        points="90.48,84.48 89.831,85.44 89.152,84.981 91.011,82.235 91.689,82.694 91.029,83.669 93.924,85.628 93.375,86.44 "/>
               <path class="fil3"
                     d="M94.856 79.629c1.242,0.677 1.585,1.841 0.981,2.948 -0.613,1.124 -1.82,1.319 -2.899,0.731 -1.136,-0.619 -1.589,-1.807 -0.979,-2.926 0.634,-1.163 1.852,-1.323 2.897,-0.753zm-1.442 2.765c0.742,0.404 1.455,0.341 1.768,-0.232 0.315,-0.58 -0.055,-1.211 -0.791,-1.613 -0.68,-0.37 -1.443,-0.363 -1.764,0.227 -0.316,0.579 0.051,1.216 0.787,1.618z"/>
               <path class="fil3"
                     d="M93.236 78.192c0.075,-0.309 0.223,-0.754 0.426,-1.231 0.25,-0.59 0.514,-0.965 0.858,-1.152 0.289,-0.156 0.621,-0.167 0.986,-0.012 0.507,0.215 0.702,0.723 0.68,1.117l0.018 0.007c0.23,-0.229 0.56,-0.269 0.968,-0.214 0.5,0.067 1.072,0.163 1.257,0.152l-0.39 0.92c-0.14,0.017 -0.504,-0.027 -1.043,-0.117 -0.541,-0.105 -0.749,0.009 -0.91,0.372l-0.115 0.271 1.562 0.664 -0.379 0.889 -3.918 -1.666zm2.087 -0.163l0.15 -0.354c0.191,-0.448 0.079,-0.808 -0.268,-0.956 -0.366,-0.155 -0.654,0.015 -0.835,0.425 -0.092,0.218 -0.127,0.349 -0.143,0.419l1.096 0.466z"/>
               <path class="fil3"
                     d="M94.641 74.811c0.049,-0.315 0.158,-0.77 0.319,-1.264 0.2,-0.608 0.431,-1.004 0.758,-1.22 0.274,-0.18 0.604,-0.22 0.981,-0.096 0.523,0.172 0.761,0.661 0.773,1.055l0.018 0.006c0.209,-0.248 0.535,-0.317 0.946,-0.296 0.504,0.024 1.082,0.071 1.266,0.044l-0.311 0.95c-0.138,0.028 -0.505,0.016 -1.049,-0.028 -0.547,-0.058 -0.745,0.073 -0.875,0.448l-0.092 0.28 1.613 0.529 -0.302 0.918 -4.045 -1.326zm2.065 -0.341l0.12 -0.364c0.151,-0.463 0.01,-0.813 -0.349,-0.93 -0.377,-0.124 -0.65,0.07 -0.796,0.494 -0.073,0.225 -0.097,0.358 -0.107,0.43l1.132 0.37z"/>
               <polygon class="fil3"
                        points="98.697,69.372 98.339,70.919 99.337,71.15 99.737,69.422 100.517,69.603 99.896,72.285 95.692,71.313 96.292,68.717 97.071,68.898 96.692,70.538 97.565,70.741 97.923,69.193 "/>
     </g>
           <g>
      <g>
       <path class="fil4"
             d="M50.036 69.798c-0.111,0.093 -0.173,0.154 -0.244,0.204 -2.202,1.548 -4.404,3.094 -6.605,4.644 -0.231,0.162 -0.458,0.332 -0.67,0.517 -0.307,0.268 -0.542,0.594 -0.674,0.983 -0.193,0.566 -0.116,1.115 0.134,1.646 0.264,0.56 0.642,1.038 1.117,1.431 0.526,0.436 1.069,0.853 1.614,1.266 0.449,0.341 0.908,0.671 1.37,0.996 0.353,0.248 0.718,0.476 1.156,0.556 0.575,0.106 1.091,-0.008 1.548,-0.379 0.305,-0.248 0.535,-0.556 0.714,-0.904 0.741,-1.44 1.483,-2.881 2.227,-4.321 0.771,-1.492 1.543,-2.983 2.317,-4.474 0.082,-0.158 0.171,-0.313 0.265,-0.464 0.07,-0.111 0.18,-0.159 0.309,-0.126 0.359,0.092 0.719,0.183 1.074,0.289 0.172,0.051 0.217,0.182 0.132,0.355 -0.165,0.333 -0.337,0.662 -0.51,0.991 -1.324,2.512 -2.649,5.024 -3.972,7.536 -0.159,0.302 -0.318,0.606 -0.462,0.915 -0.427,0.922 -0.336,1.792 0.287,2.597 0.268,0.347 0.589,0.609 1.024,0.748 1.673,0.534 3.361,0.995 5.106,1.233 1.108,0.151 1.721,-0.458 2.01,-1.182 0.206,-0.515 0.293,-1.06 0.294,-1.615 0,-0.52 -0.01,-1.041 -0.019,-1.561 -0.033,-1.933 -0.07,-3.866 -0.101,-5.8 -0.017,-1.085 -0.025,-2.171 -0.037,-3.257 -0.004,-0.464 0.07,-0.54 0.541,-0.549 0.253,-0.005 0.505,-0.005 0.758,0.002 0.1,0.002 0.2,0.029 0.321,0.049 0.012,0.131 0.032,0.246 0.031,0.361 -0.004,0.743 -0.011,1.487 -0.017,2.231 -0.023,2.721 -0.046,5.443 -0.07,8.165 -0.004,0.402 0.021,0.803 0.1,1.198 0.085,0.429 0.257,0.82 0.537,1.161 0.336,0.407 0.768,0.653 1.285,0.743 0.219,0.038 0.444,0.065 0.665,0.056 0.788,-0.03 1.574,-0.074 2.329,-0.34 0.207,-0.073 0.44,-0.073 0.649,-0.142 0.662,-0.22 1.321,-0.451 1.976,-0.692 0.207,-0.077 0.406,-0.186 0.592,-0.306 0.685,-0.445 0.991,-1.081 0.936,-1.896 -0.033,-0.483 -0.17,-0.934 -0.394,-1.36 -0.221,-0.422 -0.449,-0.84 -0.67,-1.26 -0.368,-0.697 -0.733,-1.395 -1.1,-2.092 -0.836,-1.592 -1.673,-3.184 -2.51,-4.776 -0.173,-0.329 -0.348,-0.656 -0.522,-0.985 -0.02,-0.039 -0.04,-0.079 -0.057,-0.12 -0.087,-0.201 -0.052,-0.444 0.261,-0.491 0.249,-0.038 0.493,-0.105 0.738,-0.168 0.391,-0.099 0.54,-0.044 0.724,0.315 0.435,0.845 0.866,1.693 1.293,2.542 0.494,0.983 0.966,1.977 1.479,2.949 0.499,0.947 0.929,1.927 1.422,2.876 0.171,0.329 0.348,0.657 0.538,0.976 0.099,0.164 0.225,0.314 0.35,0.46 0.643,0.757 1.668,0.797 2.395,0.393 1.218,-0.677 2.305,-1.524 3.269,-2.528 0.329,-0.343 0.64,-0.704 0.953,-1.062 0.227,-0.259 0.417,-0.546 0.527,-0.874 0.207,-0.621 0.103,-1.204 -0.25,-1.746 -0.298,-0.455 -0.696,-0.811 -1.136,-1.123 -0.945,-0.671 -1.896,-1.335 -2.842,-2.007 -1.212,-0.86 -2.423,-1.724 -3.632,-2.588 -0.08,-0.058 -0.148,-0.133 -0.236,-0.214 0.065,-0.055 0.103,-0.103 0.153,-0.128 0.396,-0.204 0.796,-0.401 1.193,-0.605 0.178,-0.091 0.324,-0.075 0.491,0.051 0.461,0.35 0.939,0.678 1.407,1.019 1.043,0.763 2.086,1.529 3.127,2.295 0.491,0.361 0.981,0.723 1.469,1.089 0.288,0.216 0.599,0.387 0.937,0.51 0.733,0.267 1.405,0.132 2.019,-0.327 0.351,-0.262 0.619,-0.603 0.807,-0.997 0.185,-0.388 0.365,-0.782 0.508,-1.188 0.327,-0.924 0.647,-1.851 0.936,-2.788 0.2,-0.653 0.345,-1.323 0.514,-1.985 0.015,-0.058 0.024,-0.117 0.038,-0.175 0.058,-0.243 0.219,-0.381 0.457,-0.433 0.117,-0.025 0.236,-0.037 0.352,-0.062 0.187,-0.041 0.373,-0.096 0.562,-0.131 0.336,-0.061 0.672,-0.122 1.01,-0.163 0.187,-0.022 0.308,0.115 0.286,0.31 -0.02,0.177 -0.063,0.351 -0.1,0.526 -0.151,0.697 -0.29,1.398 -0.46,2.09 -0.091,0.375 -0.233,0.737 -0.357,1.103 -0.109,0.323 -0.234,0.64 -0.332,0.967 -0.047,0.154 -0.058,0.321 -0.069,0.484 -0.017,0.252 0.066,0.444 0.282,0.612 0.41,0.319 0.788,0.678 1.182,1.017 0.812,0.697 1.609,1.413 2.446,2.077 0.378,0.299 0.386,0.895 0.176,1.25 -0.484,0.817 -0.952,1.645 -1.426,2.468 -0.222,0.385 -0.444,0.771 -0.667,1.156 -0.008,0.013 -0.017,0.024 -0.025,0.037 -0.317,0.453 -0.536,0.536 -1.065,0.364 -0.48,-0.156 -0.954,-0.332 -1.43,-0.501 -0.994,-0.353 -1.987,-0.709 -2.982,-1.06 -0.097,-0.034 -0.201,-0.055 -0.304,-0.069 -0.234,-0.033 -0.445,0.021 -0.612,0.195 -0.216,0.225 -0.437,0.447 -0.636,0.686 -0.791,0.952 -1.683,1.801 -2.612,2.614 -0.145,0.127 -0.277,0.271 -0.429,0.39 -0.171,0.133 -0.237,0.306 -0.222,0.508 0.013,0.176 0.034,0.357 0.088,0.524 0.118,0.368 0.259,0.727 0.39,1.091 0.11,0.306 0.22,0.614 0.329,0.921 0.195,0.545 0.393,1.089 0.584,1.635 0.098,0.281 0.174,0.569 0.275,0.848 0.108,0.296 -0.01,0.661 -0.333,0.882 -0.493,0.336 -1.038,0.573 -1.541,0.886 -0.655,0.409 -1.321,0.799 -1.985,1.192 -0.114,0.068 -0.249,0.103 -0.36,0.175 -0.297,0.189 -0.567,0.128 -0.826,-0.069 -0.106,-0.08 -0.213,-0.165 -0.297,-0.267 -0.533,-0.639 -1.054,-1.287 -1.59,-1.924 -0.469,-0.557 -0.951,-1.103 -1.429,-1.652 -0.279,-0.319 -0.597,-0.394 -1.002,-0.243 -0.221,0.083 -0.444,0.166 -0.664,0.254 -0.582,0.231 -1.184,0.395 -1.791,0.541 -0.562,0.136 -1.124,0.274 -1.687,0.407 -0.13,0.03 -0.266,0.037 -0.395,0.07 -0.142,0.037 -0.282,0.087 -0.419,0.14 -0.245,0.094 -0.364,0.283 -0.413,0.538 -0.157,0.817 -0.332,1.63 -0.483,2.448 -0.111,0.599 -0.192,1.204 -0.293,1.805 -0.037,0.219 -0.095,0.435 -0.145,0.653 -0.078,0.348 -0.312,0.528 -0.65,0.586 -0.116,0.02 -0.237,0.02 -0.356,0.02 -1.353,0 -2.707,-0.001 -4.06,-0.002 -0.089,-0.001 -0.18,0.003 -0.267,-0.012 -0.285,-0.049 -0.504,-0.192 -0.583,-0.482 -0.065,-0.244 -0.109,-0.493 -0.157,-0.741 -0.053,-0.277 -0.098,-0.555 -0.15,-0.832 -0.126,-0.67 -0.255,-1.339 -0.381,-2.008 -0.038,-0.205 -0.074,-0.41 -0.109,-0.615 -0.05,-0.293 -0.101,-0.586 -0.146,-0.879 -0.03,-0.19 -0.11,-0.336 -0.302,-0.405 -0.181,-0.065 -0.356,-0.154 -0.542,-0.2 -0.649,-0.159 -1.303,-0.3 -1.953,-0.456 -0.448,-0.108 -0.898,-0.211 -1.337,-0.348 -0.381,-0.119 -0.746,-0.29 -1.122,-0.426 -0.151,-0.055 -0.312,-0.096 -0.471,-0.116 -0.232,-0.029 -0.429,0.034 -0.588,0.233 -0.222,0.278 -0.477,0.529 -0.707,0.799 -0.318,0.374 -0.603,0.778 -0.944,1.129 -0.465,0.479 -0.823,1.049 -1.314,1.505 -0.085,0.079 -0.133,0.199 -0.216,0.282 -0.115,0.113 -0.237,0.224 -0.372,0.312 -0.159,0.103 -0.34,0.103 -0.512,0.017 -0.239,-0.121 -0.48,-0.238 -0.712,-0.371 -0.594,-0.338 -1.183,-0.684 -1.774,-1.027 -0.5,-0.291 -1.001,-0.58 -1.498,-0.877 -0.1,-0.06 -0.194,-0.139 -0.274,-0.224 -0.188,-0.202 -0.242,-0.448 -0.152,-0.705 0.106,-0.307 0.239,-0.604 0.357,-0.907 0.042,-0.11 0.075,-0.225 0.112,-0.337 0.167,-0.509 0.299,-1.032 0.511,-1.521 0.238,-0.547 0.403,-1.116 0.606,-1.674 0.025,-0.07 0.039,-0.144 0.066,-0.212 0.157,-0.389 0.019,-0.698 -0.263,-0.961 -0.304,-0.285 -0.605,-0.574 -0.926,-0.838 -0.553,-0.455 -1.046,-0.969 -1.517,-1.506 -0.303,-0.346 -0.596,-0.701 -0.904,-1.043 -0.108,-0.12 -0.236,-0.229 -0.374,-0.315 -0.095,-0.059 -0.222,-0.094 -0.334,-0.094 -0.162,0.001 -0.331,0.021 -0.482,0.074 -0.757,0.267 -1.508,0.55 -2.262,0.823 -0.223,0.082 -0.451,0.15 -0.674,0.229 -0.505,0.177 -1.007,0.363 -1.514,0.532 -0.427,0.143 -0.624,0.079 -0.884,-0.28 -0.157,-0.216 -0.303,-0.443 -0.436,-0.675 -0.376,-0.658 -0.75,-1.317 -1.111,-1.984 -0.19,-0.351 -0.418,-0.678 -0.611,-1.027 -0.05,-0.091 -0.103,-0.181 -0.146,-0.275 -0.162,-0.348 -0.133,-0.666 0.167,-0.93 0.435,-0.383 0.873,-0.762 1.31,-1.142 0.426,-0.37 0.851,-0.741 1.277,-1.111 0.348,-0.302 0.685,-0.617 1.047,-0.899 0.385,-0.299 0.475,-0.633 0.301,-1.094 -0.222,-0.582 -0.4,-1.183 -0.577,-1.781 -0.119,-0.398 -0.204,-0.805 -0.304,-1.208 -0.057,-0.231 -0.121,-0.46 -0.171,-0.693 -0.074,-0.348 -0.145,-0.698 -0.207,-1.049 -0.027,-0.157 0.061,-0.26 0.222,-0.267 0.132,-0.007 0.273,-0.013 0.398,0.023 0.46,0.129 0.934,0.174 1.405,0.234 0.044,0.005 0.088,0.014 0.132,0.018 0.277,0.024 0.417,0.182 0.478,0.447 0.114,0.492 0.226,0.986 0.372,1.469 0.235,0.782 0.478,1.564 0.753,2.333 0.235,0.657 0.516,1.297 0.783,1.942 0.085,0.206 0.172,0.415 0.289,0.603 0.156,0.252 0.318,0.507 0.52,0.72 0.559,0.585 1.239,0.747 1.998,0.461 0.288,-0.109 0.57,-0.262 0.822,-0.44 1.14,-0.808 2.268,-1.631 3.4,-2.45 0.927,-0.671 1.853,-1.343 2.78,-2.013 0.083,-0.06 0.168,-0.124 0.261,-0.167 0.183,-0.084 0.384,-0.116 0.559,-0.008 0.379,0.234 0.761,0.463 1.146,0.793z"/>
          <path class="fil5"
                d="M61.896 72.633l0.173 9.915c0,0 -0.347,2.323 1.491,2.011 1.837,-0.312 4.715,-1.144 4.715,-1.144 0,0 1.109,-0.381 0.346,-1.803 -0.763,-1.421 -4.645,-9.222 -4.645,-9.222l-2.08 0.243z"/>
          <path class="fil5"
                d="M58.464 72.806l0 10.297c0,0 0.242,1.652 -1.283,1.485 -1.526,-0.168 -4.75,-1 -4.75,-1 0,0 -1.317,-0.451 -0.381,-2.149 0.936,-1.699 4.472,-8.91 4.472,-8.91l1.942 0.277z"/>
          <path class="fil5"
                d="M52.778 71.94l-3.917 7.938c0,0 -0.59,1.456 -1.803,0.624 -1.213,-0.831 -3.918,-3.362 -3.918,-3.362 0,0 -0.762,-1.006 0.624,-1.803 1.387,-0.797 6.622,-4.611 6.622,-4.611l2.392 1.214z"/>
          <path class="fil5"
                d="M67.512 71.731l4.299 8.564c0,0 0.589,1.484 1.837,0.464 1.248,-1.019 3.779,-3.55 3.779,-3.55 0,0 0.971,-0.798 -0.416,-1.699 -1.387,-0.901 -6.899,-5.026 -6.899,-5.026l-2.6 1.247z"/>
          <path class="fil5"
                d="M82.662 67.363c0,0 -1.63,4.577 -1.803,5.027 -0.173,0.451 -1.075,0.832 -1.872,0.312 -0.797,-0.52 -5.616,-4.195 -5.616,-4.195l1.456 -0.554 7.835 -0.59z"/>
          <path class="fil5"
                d="M47.049 68.863l-5.408 3.666c0,0 -1.326,1.014 -2.054,-0.572 -0.728,-1.586 -1.716,-4.68 -1.716,-4.68l8.398 0.806 0.78 0.78z"/>
      </g>
               <g>
       <circle class="fil1" cx="60.331" cy="49.507" r="20.764"/>
                   <path class="fil6"
                         d="M60.312 28.743c-0.205,0 -0.41,0.004 -0.613,0.01 -0.442,0.984 -0.691,2.074 -0.691,3.223 0,4.346 3.524,7.87 7.87,7.87 3.551,0 6.551,-2.352 7.531,-5.582 -3.702,-3.426 -8.655,-5.521 -14.097,-5.521z"/>
                   <path class="fil7"
                         d="M42.618 60.345c3.651,5.954 10.218,9.925 17.713,9.925 7.495,0 14.062,-3.971 17.712,-9.925l-35.425 0z"/>
                   <path class="fil6"
                         d="M81.095 49.507c0,-0.569 -0.025,-1.131 -0.069,-1.688l-0.703 0.056 -1.91 -1.928 -0.049 -1.579 2.554 2.428c-0.035,-0.27 -0.076,-0.537 -0.121,-0.803l-1.952 -1.821 -0.089 -0.428 1.473 -0.183c-0.029,-0.099 -0.059,-0.198 -0.09,-0.296l-1.17 0.176 0.977 -0.738 0.007 0c-0.042,-0.119 -0.083,-0.238 -0.127,-0.356l-0.065 0.049 -4.511 -0.014 0 0 4.339 -0.648c-0.047,-0.117 -0.094,-0.233 -0.143,-0.348l-5.19 0.772 -5.078 6.201 -3.074 -3.314 -0.187 -0.16 -4.063 -0.829 -0.294 -0.267 -10.665 0.614 -8.954 1.551 -0.347 0.12 -2.022 3.017c-0.003,0.138 -0.005,0.276 -0.005,0.416 0,0.294 0.008,0.586 0.02,0.876l1.9 -3.093 0.08 -0.053 0 3.703 -1.94 0.153c0.283,3.738 1.555,7.199 3.555,10.123l0.381 0 -0.232 -7.324 0.232 0 0 -0.748 0 -0.542 22.933 -1.394 0 0.385 0.161 0.098 -0.357 8.287 -1.105 0 0 1.603 3.849 0 5.756 -0.249 0 -1.354 -1.301 -0.107 -0.819 -7.449 0.204 -0.138 -0.076 -1.46 8.269 -0.503c0.01,-0.27 0.018,-0.541 0.018,-0.814zm-30.841 -4.729l0.098 0.256 -0.257 0.364 -2.285 -0.167 2.444 -0.453zm-2.963 0.549l2.645 0.297 -0.25 0.355 -2.705 -0.594 0.31 -0.058zm2.301 0.785l-0.014 0.02 -2.815 -0.016 0.416 -0.532 2.413 0.528zm-3.24 -0.61l0.29 -0.054 0.295 0.092 -0.409 0.568 -0.176 0.005 0 -0.611zm0 0.846l0.025 0 -0.025 0.039 0 -0.039zm0 0.377l0.25 -0.379 2.835 -0.014 -0.033 0.047 -2.246 0.391 -0.806 0.055 0 -0.1 0 0zm2.743 0.091l-1.065 1.509 -0.942 -1.122 0.011 -0.069 1.996 -0.318zm-5.398 3.956l-1.541 0.121 -0.172 -4.131 0.096 -0.12 2.342 3.184 -0.725 0.946zm0.75 -0.06l0.302 -0.442 0.291 0.395 -0.593 0.047zm1.575 -0.126l-0.377 0.031 -0.601 -0.781 0.978 -1.434 0 2.184zm0 -2.844l-1.293 1.685 -1.868 -2.429 3.16 0.417 0.001 0.327zm0 -0.927l-3.527 -0.448 3.527 -0.018 0 0.466zm0 -0.704l-2.865 -0.016 2.865 -0.532 0 0.548zm0.567 4.427l-0.237 0.02 0 -2.64 0.083 -0.122 0.157 -0.036 -0.003 2.778zm0.305 -2.847l0.047 -0.106 0.841 1.093 -0.962 1.364 0.074 -2.351zm0.471 2.79l0.821 -1.275 0.877 1.141 -1.698 0.134zm3.263 -0.258l-0.942 0.075 -1.246 -1.485 1.358 -2.109 0.83 -0.133 0 3.652 0 0zm0 -4.057l-0.544 0.094 0.544 -0.844 0 0.75zm10.077 -2.056l0.098 0.343 -3.286 -0.081 -0.18 -0.05 0 0 3.368 -0.212zm-3.929 0.316l0.009 0.002 -0.054 0.103 0.438 0.011 2.005 0.595 -2.755 -0.214 0.357 -0.497zm1.759 0.866l-2.478 0.136 0.201 -0.279 2.277 0.143zm-7.43 -0.155l0.029 -0.085 0.665 0.91 -0.693 0.12 0 -0.945 -0.001 0zm0 5.049l0 -3.691 0.97 -0.155 1.344 1.84 -1.407 1.934 -0.907 0.072zm1.397 -3.914l2.608 -0.417 -1.433 1.97 -1.175 -1.553zm0.238 3.784l1.015 -1.416 0.922 1.263 -1.937 0.153zm2.833 -0.224l-0.355 0.028 -1.201 -1.586 1.556 -2.17 0 3.728 0 0zm0 -4.614l-0.071 0.099 -3.29 0.573 -0.79 -1.044 4.151 0.26 0 0.112zm0 -0.36l-3.348 -0.261 3.348 -0.164 0 0.425zm0.429 -0.451l0.169 -0.011 -0.165 0.228 -0.004 -0.217zm0.023 1.22l4.073 -0.191 -2.187 2.703 -1.88 -2.15 -0.006 -0.362zm0.078 4.164l-0.06 -3.181 1.565 1.904 -1.002 1.237 -0.503 0.04zm1.124 -0.089l0.659 -0.85 0.615 0.749 -1.274 0.101zm2.957 -0.234l-1.036 0.082 -0.958 -1.091 1.994 -2.574 0 3.583zm-1.949 -4.898l2.511 0.067 -0.416 0.512 -2.095 -0.579zm3.004 4.814l-0.659 0.052 0 -4.022 0.659 -0.031 0 4.001zm0 -4.241l-0.5 0.027 0.377 -0.487 0.097 0.064 0.026 -0.009 0 0.405zm4.18 0.441l0.084 2.181 -1.022 -1.008 0.902 -1.175 0.036 0.002zm-1.24 0.875l-1.174 -1.159 2.147 -0.1 -0.973 1.259zm0.2 -1.49l-1.619 0.09 -0.384 -0.379 1.011 0.027 0 0 0.992 0.262zm-1.78 -0.471l-0.419 -0.01 -0.139 -0.138 0.558 0.148zm-0.932 0.163l0.173 0.005 0.383 0.422 -0.556 0.031 0 -0.458 0 0zm0 4.689l0 -3.987 0.772 -0.036 1.412 1.557 -1.863 2.411 0.055 0.026 -0.376 0.029zm0.876 -0.069l1.596 -2.079 1.402 1.547 0.012 0.294 -3.01 0.238zm6.278 -0.496l-2.094 0.165 -0.115 -0.092 -0.606 -0.597 -0.154 -2.658 0.065 0.003 0.187 -0.053 2.735 3.21 -0.018 0.022zm0.91 -0.072l4.517 -5.663 0.035 5.303 -4.552 0.36zm4.944 -5.396l0.196 -0.303 1.958 1.912 -2.083 2.346 -0.071 -3.955zm1.474 0.343l1.328 0.537 -0.377 0.424 -0.951 -0.961zm1.751 4.407l-3.135 0.247 2.443 -3.019 0.692 0.676 0 2.096zm0 -2.638l-0.455 -0.461 0.366 -0.511 -0.122 -0.175 0.211 0.086 0 1.061zm0.173 -1.753l-2.934 -1.063 -0.027 -0.065 4.269 0.137 -1.302 0.988 -0.006 0.003zm0.405 4.345l-0.048 -1.533 1.456 1.422 -1.408 0.111z"/>
                   <g>
        <path class="fil8"
              d="M41.438 45.907l0.471 -0.166 8.923 -1.559 10.771 -0.649 0.418 0.33 4.048 0.805 0.214 0.289 2.834 3.038 4.95 -6.095 5.264 -0.752c-1.095,-2.487 -2.663,-4.719 -4.592,-6.58 -1.088,3.296 -4.191,5.677 -7.852,5.677 -4.568,0 -8.27,-3.703 -8.27,-8.269 0,-1.137 0.23,-2.22 0.645,-3.206 -10.678,0.536 -19.229,9.139 -19.685,19.839l1.861 -2.702z"/>
                       <polygon class="fil8"
                                points="66.398,51.861 66.25,51.706 66.243,51.509 43.845,52.959 43.855,54.122 43.678,54.138 43.81,59.892 65.071,59.85 66.051,59.827 "/>
                       <path class="fil8"
                             d="M73.037 51.111l0.087 1.346 -0.162 0.106 0.799 7.037 1.037 0.234 3.517 0.058c1.604,-2.772 2.584,-5.941 2.752,-9.288l-8.03 0.507z"/>
       </g>
      </g>
     </g>
    </g>
   </g>
  </g>
 </g>
</svg>
